<svg width="160" height="50" fill="none" xmlns="http://www.w3.org/2000/svg"><path d="M0 49.51V.49h7.242v44.048H25.81v4.972H0zm40.006-37.185c0-3.782 1.207-6.77 3.62-8.964C46.104 1.121 49.848 0 54.86 0c5.014 0 8.758 1.12 11.234 3.361 2.476 2.195 3.714 5.182 3.714 8.964v25.35c0 3.735-1.238 6.723-3.714 8.964C63.618 48.879 59.874 50 54.86 50c-5.013 0-8.758-1.12-11.233-3.361-2.414-2.241-3.621-5.23-3.621-8.964v-25.35zm7.149 25.63c0 2.241.619 3.992 1.856 5.252 1.3 1.214 3.25 1.821 5.85 1.821 2.66 0 4.61-.607 5.848-1.82 1.238-1.261 1.857-3.012 1.857-5.253v-25.91c0-2.241-.619-3.968-1.857-5.182-1.238-1.26-3.187-1.891-5.849-1.891-2.6 0-4.549.63-5.849 1.89-1.237 1.215-1.856 2.942-1.856 5.183v25.91zM99.95 0c5.013 0 8.696 1.12 11.048 3.361 2.414 2.241 3.621 5.23 3.621 8.964v4.202h-6.87v-4.482c0-2.241-.619-3.968-1.857-5.182-1.176-1.26-3.095-1.891-5.756-1.891-2.6 0-4.518.63-5.756 1.89-1.238 1.215-1.857 2.942-1.857 5.183v25.91c0 2.241.619 3.992 1.857 5.252 1.238 1.214 3.156 1.821 5.756 1.821 2.661 0 4.58-.607 5.756-1.82 1.238-1.261 1.857-3.012 1.857-5.253v-9.804h-6.685V23.25h13.555v14.426c0 3.735-1.207 6.723-3.621 8.964-2.352 2.239-6.035 3.36-11.048 3.36-4.951 0-8.634-1.12-11.048-3.361-2.352-2.241-3.528-5.23-3.528-8.964v-25.35c0-1.867.279-3.548.836-5.042.619-1.54 1.516-2.848 2.692-3.922 1.238-1.073 2.754-1.89 4.55-2.45C95.307.302 97.473 0 99.95 0zm30.248 12.325c0-3.782 1.207-6.77 3.621-8.964C136.295 1.121 140.039 0 145.053 0c5.013 0 8.758 1.12 11.233 3.361C158.762 5.556 160 8.543 160 12.325v25.35c0 3.735-1.238 6.723-3.714 8.964-2.475 2.24-6.22 3.361-11.233 3.361-5.014 0-8.758-1.12-11.234-3.361-2.414-2.241-3.621-5.23-3.621-8.964v-25.35zm7.149 25.63c0 2.241.619 3.992 1.857 5.252 1.3 1.214 3.249 1.821 5.849 1.821 2.661 0 4.611-.607 5.849-1.82 1.238-1.261 1.856-3.012 1.856-5.253v-25.91c0-2.241-.618-3.968-1.856-5.182-1.238-1.26-3.188-1.891-5.849-1.891-2.6 0-4.549.63-5.849 1.89-1.238 1.215-1.857 2.942-1.857 5.183v25.91z" fill="#000"/></svg>