<svg width="32" height="27" fill="none" xmlns="http://www.w3.org/2000/svg"><path d="M4.333 4L1 8.4v15.4c0 .584.234 1.143.65 1.556A2.24 2.24 0 003.222 26h15.556c.59 0 1.154-.232 1.571-.644A2.19 2.19 0 0021 23.8V8.4L17.667 4H4.333zM1 8.4h20" stroke="#000" stroke-width="2" stroke-linecap="round" stroke-linejoin="round"/><path d="M15.445 12.8a4.378 4.378 0 01-1.302 3.111A4.467 4.467 0 0111 17.2a4.467 4.467 0 01-3.142-1.289A4.378 4.378 0 016.556 12.8" stroke="#000" stroke-width="2" stroke-linecap="round" stroke-linejoin="round"/><circle cx="24" cy="8" r="8" fill="#000"/><path d="M24.967 9.03V5.226l-2.69 3.802h2.69zm.017 2.97V9.95h-3.68V8.917l3.844-5.332h.891v5.443h1.236v.92H26.04V12h-1.055z" fill="#fff"/></svg>