<svg width="77" height="24" fill="none" xmlns="http://www.w3.org/2000/svg"><path d="M0 23.765V.235h3.485v21.143h8.936v2.387H0zM19.253 5.916c0-1.815.58-3.25 1.742-4.303C22.187.538 23.99 0 26.401 0c2.413 0 4.215.538 5.407 1.613 1.191 1.054 1.787 2.488 1.787 4.303v12.168c0 1.793-.596 3.227-1.787 4.303C30.616 23.462 28.814 24 26.4 24c-2.412 0-4.214-.538-5.406-1.613-1.161-1.076-1.742-2.51-1.742-4.303V5.916zm3.44 12.302c0 1.076.298 1.916.894 2.521.625.583 1.564.874 2.814.874 1.281 0 2.22-.29 2.815-.873.596-.605.894-1.446.894-2.521V5.781c0-1.076-.298-1.905-.894-2.488-.595-.605-1.534-.907-2.815-.907-1.25 0-2.189.302-2.814.907-.596.583-.894 1.412-.894 2.488v12.436zM48.101 0c2.413 0 4.185.538 5.317 1.613 1.161 1.076 1.742 2.51 1.742 4.303v2.017h-3.306V5.782c0-1.076-.298-1.905-.894-2.488-.566-.605-1.489-.907-2.77-.907-1.25 0-2.174.302-2.77.907-.596.583-.893 1.412-.893 2.488v12.436c0 1.076.297 1.916.893 2.521.596.583 1.52.874 2.77.874 1.281 0 2.205-.29 2.77-.873.596-.605.894-1.446.894-2.521v-4.706h-3.217V11.16h6.523v6.924c0 1.793-.58 3.227-1.742 4.303C52.286 23.462 50.514 24 48.1 24c-2.383 0-4.155-.538-5.317-1.613-1.132-1.076-1.698-2.51-1.698-4.303V5.916c0-.896.134-1.703.402-2.42a5.07 5.07 0 011.296-1.883c.596-.515 1.326-.907 2.19-1.176C45.866.146 46.91 0 48.1 0zm14.557 5.916c0-1.815.58-3.25 1.742-4.303C65.592.538 67.394 0 69.807 0c2.412 0 4.214.538 5.406 1.613C76.404 2.667 77 4.101 77 5.916v12.168c0 1.793-.596 3.227-1.787 4.303C74.02 23.462 72.219 24 69.807 24c-2.413 0-4.215-.538-5.407-1.613-1.161-1.076-1.742-2.51-1.742-4.303V5.916zm3.44 12.302c0 1.076.298 1.916.894 2.521.625.583 1.564.874 2.815.874 1.28 0 2.219-.29 2.814-.873.596-.605.894-1.446.894-2.521V5.781c0-1.076-.298-1.905-.894-2.488-.595-.605-1.533-.907-2.814-.907-1.251 0-2.19.302-2.815.907-.596.583-.894 1.412-.894 2.488v12.436z" fill="#000"/></svg>