<svg width="26" height="24" fill="none" xmlns="http://www.w3.org/2000/svg"><path d="M23.15 2.945a6.304 6.304 0 00-2.05-1.44A6.05 6.05 0 0018.683 1a6.05 6.05 0 00-2.417.505 6.304 6.304 0 00-2.05 1.44L13 4.224l-1.217-1.279C10.598 1.7 8.992 1.001 7.316 1.001 5.641 1 4.035 1.7 2.85 2.945S1 5.878 1 7.639c0 1.76.665 3.449 1.85 4.694l1.217 1.279L13 23l8.932-9.388 1.217-1.28a6.667 6.667 0 001.37-2.153A6.93 6.93 0 0025 7.64a6.93 6.93 0 00-.481-2.54 6.668 6.668 0 00-1.37-2.154v0z" stroke="#000" stroke-width="2" stroke-linecap="round" stroke-linejoin="round"/></svg>