<svg width="32" height="30" fill="none" xmlns="http://www.w3.org/2000/svg"><path d="M4.833 4L1 9v17.5c0 .663.27 1.299.748 1.768.48.469 1.13.732 1.808.732h17.888c.678 0 1.328-.263 1.808-.732.479-.47.748-1.105.748-1.768V9l-3.833-5H4.833zM1 9h23" stroke="#000" stroke-width="2" stroke-linecap="round" stroke-linejoin="round"/><path d="M17.611 14a4.945 4.945 0 01-1.497 3.535A5.17 5.17 0 0112.5 19a5.17 5.17 0 01-3.614-1.465A4.945 4.945 0 017.389 14" stroke="#000" stroke-width="2" stroke-linecap="round" stroke-linejoin="round"/><circle cx="24" cy="8" r="8" fill="#000"/><path d="M24.967 9.03V5.226l-2.69 3.802h2.69zm.017 2.97V9.95h-3.68V8.917l3.844-5.332h.891v5.443h1.236v.92H26.04V12h-1.055z" fill="#fff"/></svg>