<?xml version="1.0" encoding="UTF-8"?><!DOCTYPE svg PUBLIC "-//W3C//DTD SVG 1.1//EN" "http://www.w3.org/Graphics/SVG/1.1/DTD/svg11.dtd"><svg xmlns="http://www.w3.org/2000/svg" xmlns:xlink="http://www.w3.org/1999/xlink"><symbol id="icon-arrow" viewBox="0 0 16 9">
<path d="M14.6667 1L8.00008 7.66667L1.33341 0.999999" stroke="black"/>
</symbol><symbol id="icon-cart-dt"><path d="M4.833 4L1 9v17.5c0 .663.27 1.299.748 1.768.48.469 1.13.732 1.808.732h17.888c.678 0 1.328-.263 1.808-.732.479-.47.748-1.105.748-1.768V9l-3.833-5H4.833zM1 9h23" stroke="#000" stroke-width="2" stroke-linecap="round" stroke-linejoin="round"/><path d="M17.611 14a4.945 4.945 0 01-1.497 3.535A5.17 5.17 0 0112.5 19a5.17 5.17 0 01-3.614-1.465A4.945 4.945 0 017.389 14" stroke="#000" stroke-width="2" stroke-linecap="round" stroke-linejoin="round"/><circle cx="24" cy="8" r="8" fill="#000"/><path d="M24.967 9.03V5.226l-2.69 3.802h2.69zm.017 2.97V9.95h-3.68V8.917l3.844-5.332h.891v5.443h1.236v.92H26.04V12h-1.055z" fill="#fff"/></symbol><symbol id="icon-cart-mob"><path d="M4.333 4L1 8.4v15.4c0 .584.234 1.143.65 1.556A2.24 2.24 0 003.222 26h15.556c.59 0 1.154-.232 1.571-.644A2.19 2.19 0 0021 23.8V8.4L17.667 4H4.333zM1 8.4h20" stroke="#000" stroke-width="2" stroke-linecap="round" stroke-linejoin="round"/><path d="M15.445 12.8a4.378 4.378 0 01-1.302 3.111A4.467 4.467 0 0111 17.2a4.467 4.467 0 01-3.142-1.289A4.378 4.378 0 016.556 12.8" stroke="#000" stroke-width="2" stroke-linecap="round" stroke-linejoin="round"/><circle cx="24" cy="8" r="8" fill="#000"/><path d="M24.967 9.03V5.226l-2.69 3.802h2.69zm.017 2.97V9.95h-3.68V8.917l3.844-5.332h.891v5.443h1.236v.92H26.04V12h-1.055z" fill="#fff"/></symbol><symbol id="icon-cross"><path d="M7 5.445L12.445 0 14 1.555 8.555 7 14 12.445 12.445 14 7 8.555 1.555 14 0 12.445 5.445 7 0 1.555 1.555 0 7 5.445z" fill="#1D1613"/></symbol><symbol id="icon-heart-dt"><path d="M26.84 3.21a7.357 7.357 0 00-2.39-1.636 7.22 7.22 0 00-5.64 0 7.359 7.359 0 00-2.39 1.636L15 4.664 13.58 3.21A7.284 7.284 0 008.369 1a7.284 7.284 0 00-5.21 2.21A7.635 7.635 0 001 8.544c0 2 .776 3.92 2.158 5.334l1.42 1.454L15 26l10.42-10.668 1.42-1.454a7.556 7.556 0 001.598-2.447 7.698 7.698 0 000-5.774A7.557 7.557 0 0026.84 3.21v0z" stroke="#000" stroke-width="2" stroke-linecap="round" stroke-linejoin="round"/></symbol><symbol id="icon-heart-mob"><path d="M23.15 2.945a6.304 6.304 0 00-2.05-1.44A6.05 6.05 0 0018.683 1a6.05 6.05 0 00-2.417.505 6.304 6.304 0 00-2.05 1.44L13 4.224l-1.217-1.279C10.598 1.7 8.992 1.001 7.316 1.001 5.641 1 4.035 1.7 2.85 2.945S1 5.878 1 7.639c0 1.76.665 3.449 1.85 4.694l1.217 1.279L13 23l8.932-9.388 1.217-1.28a6.667 6.667 0 001.37-2.153A6.93 6.93 0 0025 7.64a6.93 6.93 0 00-.481-2.54 6.668 6.668 0 00-1.37-2.154v0z" stroke="#000" stroke-width="2" stroke-linecap="round" stroke-linejoin="round"/></symbol><symbol id="icon-logo-dt"><path d="M0 49.51V.49h7.242v44.048H25.81v4.972H0zm40.006-37.185c0-3.782 1.207-6.77 3.62-8.964C46.104 1.121 49.848 0 54.86 0c5.014 0 8.758 1.12 11.234 3.361 2.476 2.195 3.714 5.182 3.714 8.964v25.35c0 3.735-1.238 6.723-3.714 8.964C63.618 48.879 59.874 50 54.86 50c-5.013 0-8.758-1.12-11.233-3.361-2.414-2.241-3.621-5.23-3.621-8.964v-25.35zm7.149 25.63c0 2.241.619 3.992 1.856 5.252 1.3 1.214 3.25 1.821 5.85 1.821 2.66 0 4.61-.607 5.848-1.82 1.238-1.261 1.857-3.012 1.857-5.253v-25.91c0-2.241-.619-3.968-1.857-5.182-1.238-1.26-3.187-1.891-5.849-1.891-2.6 0-4.549.63-5.849 1.89-1.237 1.215-1.856 2.942-1.856 5.183v25.91zM99.95 0c5.013 0 8.696 1.12 11.048 3.361 2.414 2.241 3.621 5.23 3.621 8.964v4.202h-6.87v-4.482c0-2.241-.619-3.968-1.857-5.182-1.176-1.26-3.095-1.891-5.756-1.891-2.6 0-4.518.63-5.756 1.89-1.238 1.215-1.857 2.942-1.857 5.183v25.91c0 2.241.619 3.992 1.857 5.252 1.238 1.214 3.156 1.821 5.756 1.821 2.661 0 4.58-.607 5.756-1.82 1.238-1.261 1.857-3.012 1.857-5.253v-9.804h-6.685V23.25h13.555v14.426c0 3.735-1.207 6.723-3.621 8.964-2.352 2.239-6.035 3.36-11.048 3.36-4.951 0-8.634-1.12-11.048-3.361-2.352-2.241-3.528-5.23-3.528-8.964v-25.35c0-1.867.279-3.548.836-5.042.619-1.54 1.516-2.848 2.692-3.922 1.238-1.073 2.754-1.89 4.55-2.45C95.307.302 97.473 0 99.95 0zm30.248 12.325c0-3.782 1.207-6.77 3.621-8.964C136.295 1.121 140.039 0 145.053 0c5.013 0 8.758 1.12 11.233 3.361C158.762 5.556 160 8.543 160 12.325v25.35c0 3.735-1.238 6.723-3.714 8.964-2.475 2.24-6.22 3.361-11.233 3.361-5.014 0-8.758-1.12-11.234-3.361-2.414-2.241-3.621-5.23-3.621-8.964v-25.35zm7.149 25.63c0 2.241.619 3.992 1.857 5.252 1.3 1.214 3.249 1.821 5.849 1.821 2.661 0 4.611-.607 5.849-1.82 1.238-1.261 1.856-3.012 1.856-5.253v-25.91c0-2.241-.618-3.968-1.856-5.182-1.238-1.26-3.188-1.891-5.849-1.891-2.6 0-4.549.63-5.849 1.89-1.238 1.215-1.857 2.942-1.857 5.183v25.91z" fill="#000"/></symbol><symbol id="icon-logo-mob"><path d="M0 23.765V.235h3.485v21.143h8.936v2.387H0zM19.253 5.916c0-1.815.58-3.25 1.742-4.303C22.187.538 23.99 0 26.401 0c2.413 0 4.215.538 5.407 1.613 1.191 1.054 1.787 2.488 1.787 4.303v12.168c0 1.793-.596 3.227-1.787 4.303C30.616 23.462 28.814 24 26.4 24c-2.412 0-4.214-.538-5.406-1.613-1.161-1.076-1.742-2.51-1.742-4.303V5.916zm3.44 12.302c0 1.076.298 1.916.894 2.521.625.583 1.564.874 2.814.874 1.281 0 2.22-.29 2.815-.873.596-.605.894-1.446.894-2.521V5.781c0-1.076-.298-1.905-.894-2.488-.595-.605-1.534-.907-2.815-.907-1.25 0-2.189.302-2.814.907-.596.583-.894 1.412-.894 2.488v12.436zM48.101 0c2.413 0 4.185.538 5.317 1.613 1.161 1.076 1.742 2.51 1.742 4.303v2.017h-3.306V5.782c0-1.076-.298-1.905-.894-2.488-.566-.605-1.489-.907-2.77-.907-1.25 0-2.174.302-2.77.907-.596.583-.893 1.412-.893 2.488v12.436c0 1.076.297 1.916.893 2.521.596.583 1.52.874 2.77.874 1.281 0 2.205-.29 2.77-.873.596-.605.894-1.446.894-2.521v-4.706h-3.217V11.16h6.523v6.924c0 1.793-.58 3.227-1.742 4.303C52.286 23.462 50.514 24 48.1 24c-2.383 0-4.155-.538-5.317-1.613-1.132-1.076-1.698-2.51-1.698-4.303V5.916c0-.896.134-1.703.402-2.42a5.07 5.07 0 011.296-1.883c.596-.515 1.326-.907 2.19-1.176C45.866.146 46.91 0 48.1 0zm14.557 5.916c0-1.815.58-3.25 1.742-4.303C65.592.538 67.394 0 69.807 0c2.412 0 4.214.538 5.406 1.613C76.404 2.667 77 4.101 77 5.916v12.168c0 1.793-.596 3.227-1.787 4.303C74.02 23.462 72.219 24 69.807 24c-2.413 0-4.215-.538-5.407-1.613-1.161-1.076-1.742-2.51-1.742-4.303V5.916zm3.44 12.302c0 1.076.298 1.916.894 2.521.625.583 1.564.874 2.815.874 1.28 0 2.219-.29 2.814-.873.596-.605.894-1.446.894-2.521V5.781c0-1.076-.298-1.905-.894-2.488-.595-.605-1.533-.907-2.814-.907-1.251 0-2.19.302-2.815.907-.596.583-.894 1.412-.894 2.488v12.436z" fill="#000"/></symbol><symbol id="icon-menu-closed"><path stroke="#000" stroke-width="2" d="M0 1h28M0 11h28M0 21h28"/></symbol><symbol id="icon-minus-dt" viewBox="0 0 16 2">
<line y1="1" x2="16" y2="1" stroke="black" stroke-width="2"/>
</symbol><symbol id="icon-minus-mob" viewBox="0 0 12 2">
<line y1="1" x2="12" y2="1" stroke="black" stroke-width="2"/>
</symbol><symbol id="icon-plus-dt" viewBox="0 0 16 16">
<line y1="8" x2="16" y2="8" stroke="black" stroke-width="2"/>
<line x1="8" y1="16" x2="8" stroke="black" stroke-width="2"/>
</symbol><symbol id="icon-plus-mob" viewBox="0 0 12 12">
<line y1="6" x2="12" y2="6" stroke="black" stroke-width="2"/>
<line x1="6" y1="12" x2="6" stroke="black" stroke-width="2"/>
</symbol><symbol id="icon-profile-dt"><path d="M23 26v-2.778a5.59 5.59 0 00-1.61-3.928 5.472 5.472 0 00-3.89-1.627h-11a5.472 5.472 0 00-3.89 1.627A5.584 5.584 0 001 23.222V26m11-13.889c3.038 0 5.5-2.487 5.5-5.555C17.5 3.487 15.038 1 12 1S6.5 3.487 6.5 6.556c0 3.068 2.462 5.555 5.5 5.555z" stroke="#000" stroke-width="2" stroke-linecap="round" stroke-linejoin="round"/></symbol><symbol id="icon-search-dt"><path d="M12.111 23.222c6.137 0 11.111-4.974 11.111-11.11C23.222 5.974 18.248 1 12.112 1 5.974 1 1 5.975 1 12.111c0 6.137 4.975 11.111 11.111 11.111zM26 26l-6.042-6.042" stroke="#000" stroke-width="2" stroke-linecap="round" stroke-linejoin="round"/></symbol><symbol id="icon-search-mob"><path d="M10.778 20.555c5.4 0 9.777-4.377 9.777-9.777 0-5.4-4.377-9.778-9.777-9.778C5.378 1 1 5.378 1 10.778s4.378 9.777 9.778 9.777zM23 23l-5.317-5.317" stroke="#000" stroke-width="2" stroke-linecap="round" stroke-linejoin="round"/></symbol></svg>